<?xml version="1.0" encoding="UTF-8"?>
<svg xmlns="http://www.w3.org/2000/svg" viewBox="0 0 512 512" role="img" aria-labelledby="logo-title logo-desc">
  <title id="logo-title">Scientific Research Skill logo</title>
  <desc id="logo-desc">A trace rises from stacked evidence, passes through a human approval gate, and ends at a verified checkpoint.</desc>
  <defs>
    <linearGradient id="logo-bg" x1="66" y1="48" x2="450" y2="470" gradientUnits="userSpaceOnUse">
      <stop offset="0" stop-color="#111C34"/>
      <stop offset="1" stop-color="#07111F"/>
    </linearGradient>
    <linearGradient id="trace-gradient" x1="118" y1="388" x2="422" y2="98" gradientUnits="userSpaceOnUse">
      <stop offset="0" stop-color="#38BDF8"/>
      <stop offset="1" stop-color="#818CF8"/>
    </linearGradient>
    <linearGradient id="gate-gradient" x1="226" y1="188" x2="350" y2="326" gradientUnits="userSpaceOnUse">
      <stop offset="0" stop-color="#FBBF24"/>
      <stop offset="1" stop-color="#F59E0B"/>
    </linearGradient>
    <filter id="soft-shadow" x="-30%" y="-30%" width="160%" height="160%">
      <feDropShadow dx="0" dy="10" stdDeviation="12" flood-color="#020617" flood-opacity="0.34"/>
    </filter>
  </defs>

  <rect x="24" y="24" width="464" height="464" rx="104" fill="url(#logo-bg)" stroke="#334155" stroke-width="8"/>
  <path d="M133 373C153 329 182 306 220 300L240 297M336 215C365 177 386 149 411 116"
        fill="none" stroke="#020617" stroke-width="32" stroke-linecap="round" stroke-linejoin="round" opacity="0.55"/>
  <path d="M133 373C153 329 182 306 220 300L240 297M336 215C365 177 386 149 411 116"
        fill="none" stroke="url(#trace-gradient)" stroke-width="14" stroke-linecap="round" stroke-linejoin="round"/>

  <g filter="url(#soft-shadow)">
    <rect x="82" y="354" width="150" height="46" rx="15" fill="#0B1628" stroke="#38BDF8" stroke-width="7"/>
    <rect x="96" y="324" width="150" height="46" rx="15" fill="#101D32" stroke="#64748B" stroke-width="6"/>
    <rect x="111" y="294" width="150" height="46" rx="15" fill="#15243C" stroke="#818CF8" stroke-width="7"/>
    <circle cx="137" cy="317" r="7" fill="#FBBF24"/>
    <path d="M157 317H226" stroke="#E2E8F0" stroke-width="8" stroke-linecap="round" opacity="0.9"/>
    <circle cx="122" cy="347" r="6" fill="#38BDF8"/>
    <path d="M142 347H211" stroke="#CBD5E1" stroke-width="7" stroke-linecap="round" opacity="0.78"/>
    <circle cx="108" cy="377" r="6" fill="#818CF8"/>
    <path d="M128 377H197" stroke="#CBD5E1" stroke-width="7" stroke-linecap="round" opacity="0.66"/>
  </g>

  <circle cx="196" cy="309" r="16" fill="#07111F" stroke="#38BDF8" stroke-width="8"/>
  <circle cx="365" cy="176" r="13" fill="#07111F" stroke="#818CF8" stroke-width="7"/>

  <g filter="url(#soft-shadow)">
    <path d="M288 170L374 256L288 342L202 256Z" fill="#0A1425" stroke="url(#gate-gradient)" stroke-width="13" stroke-linejoin="round"/>
    <circle cx="288" cy="226" r="22" fill="#F8FAFC"/>
    <path d="M244 297C247 266 264 251 288 251C312 251 329 266 332 297" fill="none" stroke="#F8FAFC" stroke-width="20" stroke-linecap="round"/>
    <path d="M273 302H303" stroke="#38BDF8" stroke-width="9" stroke-linecap="round"/>
  </g>

  <g filter="url(#soft-shadow)">
    <circle cx="412" cy="114" r="58" fill="#0B1628" stroke="#334155" stroke-width="8"/>
    <circle cx="412" cy="114" r="43" fill="#10233A" stroke="#38BDF8" stroke-width="9"/>
    <path d="M388 114L404 130L437 94" fill="none" stroke="#F8FAFC" stroke-width="14" stroke-linecap="round" stroke-linejoin="round"/>
  </g>

  <path d="M377 150L399 128" fill="none" stroke="#818CF8" stroke-width="10" stroke-linecap="round"/>
</svg>
